 <svg xmlns="http://www.w3.org/2000/svg" width="2000" height="1000" viewBox="0 0 2000 1000"> <g > <g > <g > <g filter="url(#blur-filter)"> <rect x="-1000" y="-500" width="4000" height="2000" fill="#8934FF" /> <path d="M149 -193L-315 537L91 908L762 359" fill="#090238"/><path d="M758 -342L151 741L535 1359L1705 365" fill="#090238"/><path d="M980 258L791 638L1314 1522L2131 1282" fill="#8934FF"/><path d="M234 216L-356 350L632 1436L904 579" fill="#090238"/><path d="M664 832L397 1137L1429 2172L1652 1834" fill="#8934FF"/><path d="M1738 709L829 1245L1401 2218L2194 1347" fill="#14ccff"/> </g> </g> </g> </g> <rect width="2000" height="1000" fill="#fff" filter="url(#noise-filter)" /> <defs> <filter id="noise-filter" x="-800px" y="-400px" width="2800px" height="1400px" filterUnits="userSpaceOnUse" primitiveUnits="userSpaceOnUse" color-interpolation-filters="linearRGB"> <feTurbulence type="fractalNoise" baseFrequency="0.088" numOctaves="4" seed="15" stitchTiles="no-stitch" x="0" y="0" width="2000px" height="1000px" result="turbulence" > </feTurbulence> <feSpecularLighting surfaceScale="10" specularConstant="0.37" specularExponent="20" lighting-color="#fff" x="0" y="0" width="2000px" height="1000px" in="turbulence" result="specularLighting" > <feDistantLight azimuth="3" elevation="100"></feDistantLight> </feSpecularLighting> </filter> <filter id="blur-filter" x="-200" y="-200" width="2400" height="1400" filterUnits="userSpaceOnUse" color-interpolation-filters="sRGB" > <feFlood flood-opacity="0" result="BackgroundImageFix" /> <feBlend mode="normal" in="SourceGraphic" in2="BackgroundImageFix" result="shape" /> <feGaussianBlur stdDeviation="200" result="effect1_foregroundBlur_1_2" /> </filter> </defs> </svg>